<svg width="20" height="20" viewBox="0 0 20 20" fill="none" xmlns="http://www.w3.org/2000/svg">
<path fill-rule="evenodd" clip-rule="evenodd" d="M6 4C3.40869 4 2.30958 5.43554 2.0582 5.82666C2.01738 5.89017 2 5.96293 2 6.0376V13.5067C2 14.0143 3.06082 14.4094 3.52632 14.1704C4.13091 13.8601 4.9408 13.6203 6 13.6203C7.72333 13.6203 8.78669 14.2552 9.37964 14.7956C9.67876 15.0681 10.3212 15.0681 10.6204 14.7956C11.2133 14.2552 12.2767 13.6203 14 13.6203C15.0592 13.6203 15.8691 13.8601 16.4737 14.1704C16.9392 14.4094 18 14.0143 18 13.5067V6.0376C18 5.96293 17.9826 5.89017 17.9418 5.82666C17.6904 5.43554 16.5913 4 14 4C12.8795 4 12.038 4.2684 11.4234 4.60472C10.7072 4.99667 9.29285 4.99667 8.57657 4.60472C7.96198 4.2684 7.12049 4 6 4ZM3.5 12.5995V6.37273C3.80589 6.03569 4.54754 5.44304 6 5.44304C6.85849 5.44304 7.44466 5.64547 7.83494 5.85904C8.26992 6.09706 8.76939 6.22944 9.25 6.29304V12.9341C8.43546 12.5019 7.36445 12.1772 6 12.1772C5.03003 12.1772 4.19979 12.3418 3.5 12.5995ZM10.75 12.9341C11.5645 12.5019 12.6355 12.1772 14 12.1772C14.97 12.1772 15.8002 12.3418 16.5 12.5995V6.37273C16.1941 6.03569 15.4525 5.44304 14 5.44304C13.1415 5.44304 12.5553 5.64547 12.1651 5.85904C11.7301 6.09706 11.2306 6.22944 10.75 6.29304V12.9341Z" fill="black"/>
</svg>
