<svg width="20" height="20" viewBox="0 0 20 20" fill="none" xmlns="http://www.w3.org/2000/svg">
<path fill-rule="evenodd" clip-rule="evenodd" d="M17.5 10C17.5 14.1421 14.1421 17.5 10 17.5C5.85786 17.5 2.5 14.1421 2.5 10C2.5 5.85786 5.85786 2.5 10 2.5C14.1421 2.5 17.5 5.85786 17.5 10ZM15.625 10C15.625 13.1066 13.1066 15.625 10 15.625C9.70625 15.625 9.41775 15.6025 9.13615 15.5591C8.9334 15.5278 8.87205 15.2744 9.02075 15.1331C10.3971 13.825 11.25 12.0083 11.25 9.99998C11.25 7.99168 10.3971 6.17502 9.02079 4.86694C8.87209 4.72561 8.93345 4.47216 9.1362 4.44091C9.41778 4.39751 9.70626 4.375 10 4.375C13.1066 4.375 15.625 6.8934 15.625 10Z" fill="black"/>
</svg>
