<svg width="20" height="20" viewBox="0 0 20 20" fill="none" xmlns="http://www.w3.org/2000/svg">
<path d="M10.7307 12.5719C10.2433 12.9748 9.52037 12.9074 9.11689 12.4194C8.71367 11.9316 8.78217 11.2094 9.2699 10.8062L9.3676 10.7255C9.84646 10.3303 10.3264 9.93421 10.8245 9.56381C11.4518 9.06346 11.7708 8.75272 11.7708 8.1509C11.7708 7.13971 10.9783 6.35417 10 6.35417C9.02167 6.35417 8.22917 7.13971 8.22917 8.1509C8.22917 8.78372 7.71616 9.29673 7.08333 9.29673C6.45051 9.29673 5.9375 8.78372 5.9375 8.1509C5.9375 5.89306 7.7371 4.0625 10 4.0625C12.2629 4.0625 14.0625 5.89306 14.0625 8.1509C14.0625 9.91682 12.8947 10.8455 12.2841 11.3311C12.1337 11.4508 11.9829 11.5699 11.8322 11.689C11.4632 11.9805 11.0941 12.2721 10.7307 12.5719Z" fill="black"/>
<path d="M11.1458 14.8958C11.1458 15.6437 10.5396 16.25 9.79167 16.25C9.04378 16.25 8.4375 15.6437 8.4375 14.8958C8.4375 14.1479 9.04378 13.5417 9.79167 13.5417C10.5396 13.5417 11.1458 14.1479 11.1458 14.8958Z" fill="black"/>
</svg>
